Coordinates
version=1
nRows=32
nColumns=22
inDegrees=yes

Units are S.I. units (second, meters, Newtons, ...)
If the header above contains a line with 'inDegrees', this indicates whether rotational values are in degrees (yes) or radians (no).

endheader
time	pelvis_tilt	pelvis_list	pelvis_rotation	pelvis_tx	pelvis_ty	pelvis_tz	hip_flexion_r	hip_adduction_r	hip_rotation_r	knee_angle_r	ankle_angle_r	subtalar_angle_r	hip_flexion_l	hip_adduction_l	hip_rotation_l	knee_angle_l	ankle_angle_l	subtalar_angle_l	lumbar_extension	lumbar_bending	lumbar_rotation
      4.07000000	      3.66554484	      2.62519640	    165.02358352	     -0.59318774	      0.85379957	     -0.35013379	     -8.22510803	     -3.61939595	      9.87647009	    -29.75278679	     10.93383943	      6.98949311	     33.38506969	    -13.03273529	     -5.87994171	    -31.25561779	      0.51163027	      3.14917912	     -2.33251795	     -1.93487360	     20.59350759
      4.08000000	      3.62438816	      2.65442452	    165.00267186	     -0.60152630	      0.85600747	     -0.34852013	     -6.95390341	     -3.66951568	      9.78105616	    -32.56029779	      8.95422329	      8.22536762	     32.82219919	    -12.87709092	     -6.10560467	    -31.47524690	      1.25330973	      3.06891560	     -2.45115693	     -2.00737671	     20.24867978
      4.09000000	      3.68323004	      2.74413698	    164.85733383	     -0.60947751	      0.85812138	     -0.34709572	     -5.39219382	     -3.64212225	      9.73113006	    -35.52368873	      7.04531660	      9.25263852	     32.27157943	    -12.85968913	     -6.42043019	    -31.56548365	      1.97857041	      2.97692163	     -2.48736772	     -1.96585643	     20.02432746
      4.10000000	      3.82638431	      2.86235746	    164.57927568	     -0.61700800	      0.86012751	     -0.34588065	     -3.56455323	     -3.57424467	      9.72831925	    -38.59501380	      5.28611187	     10.03890552	     31.72721841	    -12.94919441	     -6.82669317	    -31.53495302	      2.66030207	      2.88163008	     -2.45376156	     -1.85217345	     19.92735102
      4.11000000	      4.02801393	      2.96861924	    164.18175360	     -0.62410949	      0.86201321	     -0.34487637	     -1.51265859	     -3.51199297	      9.75179502	    -41.72338242	      3.75286357	     10.55314150	     31.19011305	    -13.09940708	     -7.33641224	    -31.41905245	      3.29023039	      2.79129472	     -2.36959435	     -1.72169810	     19.93824669
      4.12000000	      4.26267052	      3.03495771	    163.69735779	     -0.63079086	      0.86379274	     -0.34403860	      0.70537176	     -3.48547053	      9.78419310	    -44.83783880	      2.49045262	     10.85565368	     30.65106868	    -13.25646300	     -7.91736709	    -31.22023644	      3.84436231	      2.69821448	     -2.25832800	     -1.61356603	     20.02780075
      4.13000000	      4.47669240	      3.03172492	    163.14797223	     -0.63711354	      0.86552681	     -0.34336527	      3.00022452	     -3.54010816	      9.80645673	    -47.86247255	      1.56626850	     10.93953491	     30.06220794	    -13.37424916	     -8.59624811	    -30.94416426	      4.31014602	      2.63285780	     -2.16367740	     -1.58105318	     20.18981195
      4.14000000	      4.71452429	      2.96728601	    162.63766770	     -0.64314320	      0.86709680	     -0.34269084	      5.36326905	     -3.66270175	      9.72154242	    -50.72606921	      0.98792622	     10.87877495	     29.53221517	    -13.41364314	     -9.23806014	    -30.64153657	      4.74036189	      2.52572249	     -2.03706990	     -1.59535155	     20.27646390
      4.15000000	      4.87095990	      2.84481105	    162.13899532	     -0.64897038	      0.86871609	     -0.34209267	      7.64095321	     -3.88537070	      9.57220703	    -53.33867071	      0.75675638	     10.68159846	     28.90991685	    -13.37028675	     -9.92096486	    -30.27120499	      5.07852727	      2.46178005	     -1.98210773	     -1.69604681	     20.37654425
      4.16000000	      4.98255484	      2.68401698	    161.72063253	     -0.65466695	      0.87031536	     -0.34145351	      9.81882564	     -4.18153403	      9.32020832	    -55.64294471	      0.81149731	     10.37333677	     28.26786329	    -13.23320289	    -10.55516087	    -29.86076790	      5.37533540	      2.40797226	     -1.96120949	     -1.84259257	     20.36466926
      4.17000000	      5.04947754	      2.54082379	    161.43090921	     -0.66032467	      0.87191599	     -0.34068707	     11.84018649	     -4.53418074	      8.85429042	    -57.58464390	      1.06297091	      9.62536858	     27.62339280	    -13.03046493	    -11.05827699	    -29.44252838	      5.63692907	      2.26175025	     -1.98610370	     -1.97418800	     20.25836409
      4.18000000	      5.03892066	      2.41359108	    161.23177609	     -0.66599765	      0.87360671	     -0.33987238	     13.64205720	     -4.92945454	      8.30185455	    -59.12812558	      1.42623843	      9.02673301	     26.90482372	    -12.77357559	    -11.49614598	    -28.98370150	      5.86878282	      2.19687049	     -2.08315118	     -2.10626722	     20.05130678
      4.19000000	      4.98352974	      2.34057976	    161.16439752	     -0.67172383	      0.87533824	     -0.33893315	     15.21636450	     -5.33642500	      7.59820219	    -60.25543751	      1.84368609	      8.40808794	     26.16872746	    -12.48857535	    -11.78965370	    -28.51792491	      6.08093920	      2.12413555	     -2.22897981	     -2.18250497	     19.72985492
      4.20000000	      4.88790668	      2.32802895	    161.21827734	     -0.67749984	      0.87712174	     -0.33789357	     16.55691815	     -5.72926884	      6.78634877	    -60.96782432	      2.21383285	      7.84232012	     25.41490340	    -12.19249620	    -11.94497008	    -28.04917124	      6.27465474	      2.04973791	     -2.42002889	     -2.19390235	     19.28450680
      4.21000000	      4.76191114	      2.39642565	    161.38911475	     -0.68333333	      0.87894728	     -0.33679897	     17.64797610	     -6.06807440	      5.88448010	    -61.25920126	      2.56128515	      7.32495429	     24.64786960	    -11.91847832	    -11.95193969	    -27.58450164	      6.46408614	      1.96712561	     -2.64912549	     -2.12032844	     18.73050126
      4.22000000	      4.62743930	      2.53952820	    161.65347809	     -0.68916484	      0.88077111	     -0.33569970	     18.52080958	     -6.31645266	      4.95948869	    -61.14779676	      2.88742245	      6.93502632	     23.89287064	    -11.68831147	    -11.84398780	    -27.13454746	      6.64570617	      1.89335348	     -2.89237099	     -1.96057321	     18.08250948
      4.23000000	      4.50356669	      2.72469725	    162.00029426	     -0.69497501	      0.88251962	     -0.33463199	     19.22130548	     -6.50044808	      4.01490557	    -60.66278916	      3.22444642	      6.72192397	     23.18636123	    -11.49040867	    -11.64496290	    -26.72210748	      6.81264519	      1.84445529	     -3.11371507	     -1.75087024	     17.39549718
      4.24000000	      4.36775265	      2.95711417	    162.38198669	     -0.70070760	      0.88425095	     -0.33369885	     19.73434267	     -6.56104898	      3.16407203	    -59.80788991	      3.56465664	      6.42991834	     22.46380816	    -11.34069182	    -11.38595795	    -26.29783311	      7.00709135	      1.76489644	     -3.34387622	     -1.49576798	     16.66930121
      4.25000000	      4.26894591	      3.19042774	    162.81132374	     -0.70633019	      0.88582269	     -0.33287448	     20.14222526	     -6.55418368	      2.37898960	    -58.61702685	      3.96023979	      6.29775601	     21.82308316	    -11.21525689	    -11.08552027	    -25.91219220	      7.18739018	      1.71488383	     -3.51631322	     -1.23478478	     15.92991704
      4.26000000	      4.19268076	      3.42929798	    163.26529443	     -0.71183440	      0.88726730	     -0.33220444	     20.43724720	     -6.46350333	      1.69480536	    -57.10373259	      4.39785565	      6.24373627	     21.22601746	    -11.12042695	    -10.76509365	    -25.53906373	      7.36023714	      1.67333145	     -3.64851154	     -0.96617565	     15.19252611
      4.27000000	      4.14278113	      3.66170974	    163.72069031	     -0.71718688	      0.88858534	     -0.33171703	     20.63161590	     -6.28812940	      1.16265826	    -55.26821517	      4.84294532	      6.24982575	     20.67170839	    -11.05283792	    -10.43874375	    -25.17190859	      7.52671366	      1.63815160	     -3.73704962	     -0.70815542	     14.47780448
      4.28000000	      4.12129739	      3.87454823	    164.17002316	     -0.72238315	      0.88976245	     -0.33140740	     20.74060328	     -6.05066482	      0.78925295	    -53.13479240	      5.27092716	      6.31656599	     20.16340715	    -11.00147330	    -10.12465238	    -24.81090387	      7.68799255	      1.61266828	     -3.77860079	     -0.47306597	     13.79844981
      4.29000000	      4.12581768	      4.06145123	    164.60364938	     -0.72742604	      0.89079831	     -0.33128427	     20.76866626	     -5.76583694	      0.58563920	    -50.72606015	      5.65853141	      6.43505827	     19.69677928	    -10.96034787	     -9.83071463	    -24.45719646	      7.84732217	      1.59822109	     -3.77450762	     -0.27097656	     13.16411539
      4.30000000	      4.16052527	      4.21375202	    165.02137797	     -0.73230218	      0.89168121	     -0.33131605	     20.72782045	     -5.45451272	      0.55841558	    -48.07005141	      6.01168515	      6.57429792	     19.28253286	    -10.91862949	     -9.56270925	    -24.11428692	      7.99323729	      1.59207950	     -3.72277956	     -0.10513744	     12.58279501
      4.31000000	      4.21319762	      4.33336502	    165.41427136	     -0.73702225	      0.89243650	     -0.33151375	     20.61419579	     -5.12517079	      0.72033580	    -45.20408823	      6.29281503	      6.71432240	     18.89877883	    -10.87311936	     -9.31353499	    -23.77663217	      8.14324201	      1.59418080	     -3.63809861	      0.02173618	     12.05930685
      4.32000000	      4.28719001	      4.41583354	    165.78670850	     -0.74159355	      0.89305432	     -0.33187630	     20.44244502	     -4.79897540	      1.05525290	    -42.17628172	      6.51298268	      6.81081295	     18.55744944	    -10.82061482	     -9.09007685	    -23.45559557	      8.28113087	      1.59860850	     -3.51448491	      0.10420553	     11.58784899
      4.33000000	      4.36215202	      4.45879873	    166.14112716	     -0.74602694	      0.89356078	     -0.33237423	     20.20909291	     -4.49454329	      1.56643685	    -39.04762203	      6.67000726	      6.83989285	     18.23188056	    -10.74445437	     -8.86659166	    -23.14302950	      8.44127202	      1.61259279	     -3.37658561	      0.13935016	     11.17014922
      4.34000000	      4.45827404	      4.47525101	    166.48637436	     -0.75033432	      0.89393873	     -0.33299878	     19.94999229	     -4.21017813	      2.20694189	    -35.88323036	      6.76117676	      6.76783724	     17.95380337	    -10.66550546	     -8.66564421	    -22.85568143	      8.57375321	      1.61678477	     -3.20246419	      0.15078716	     10.78366726
      4.35000000	      4.53731407	      4.45539777	    166.82872068	     -0.75455734	      0.89424007	     -0.33373221	     19.64332890	     -3.97352614	      2.96427587	    -32.74823131	      6.84150892	      6.54949026	     17.66824772	    -10.55334305	     -8.43806708	    -22.57159194	      8.73724191	      1.63553634	     -3.03063988	      0.11532906	     10.44263221
      4.36000000	      4.63254902	      4.41790302	    167.17088967	     -0.75868497	      0.89443359	     -0.33457255	     19.34641976	     -3.76286817	      3.78959969	    -29.71573748	      6.87710431	      6.24911904	     17.42589506	    -10.44090086	     -8.20942290	    -22.31944239	      8.88874337	      1.64810000	     -2.82694036	      0.06699836	     10.12510056
      4.37000000	      4.74416931	      4.36831013	    167.51657798	     -0.76275625	      0.89454214	     -0.33552049	     19.07220919	     -3.57452425	      4.63695410	    -26.84068721	      6.87262468	      5.94242734	     17.21211470	    -10.33207498	     -7.98524728	    -22.07606303	      9.02496654	      1.66021031	     -2.58651415	      0.01371462	      9.81916577
      4.38000000	      4.82353292	      4.30593670	    167.87911214	     -0.76679198	      0.89462633	     -0.33654198	     18.77698739	     -3.41884972	      5.47565703	    -24.16850045	      6.92344017	      5.54075628	     16.97246928	    -10.20454030	     -7.70360544	    -21.84030501	      9.19447890	      1.70120693	     -2.36609496	     -0.06093330	      9.56195664
